<svg fill="none" height="800" viewBox="0 0 24 24" width="800" xmlns="http://www.w3.org/2000/svg"><path d="m22 3.47059v17.05881c0 .39-.155.7641-.4308 1.0399-.2757.2758-.6498.4307-1.0398.4307h-17.05884c-.39003 0-.76408-.1549-1.03987-.4307-.27578-.2758-.43072-.6499-.43072-1.0399v-17.05881c0-.39003.15494-.76408.43072-1.03986.27579-.27579.64984-.43073 1.03987-.43073h17.05884c.39 0 .7641.15494 1.0398.43073.2758.27578.4308.64983.4308 1.03986zm-14.11768 6.17647h-2.94117v9.41174h2.94117zm.26471-3.2353c.00155-.22247-.04074-.44307-.12445-.64921-.0837-.20613-.20719-.39376-.36342-.55216-.15622-.15841-.34211-.2845-.54706-.37106s-.42495-.13191-.64742-.13345h-.05295c-.45242 0-.88632.17973-1.20624.49964-.31991.31992-.49964.75382-.49964 1.20624 0 .45243.17973.88633.49964 1.20625.31992.31991.75382.49964 1.20624.49964.2225.00547.44389-.03295.65152-.11307.20764-.08011.39746-.20036.55861-.35386s.29048-.33726.38059-.54076.13924-.42276.14458-.64525zm10.91177 6.92944c0-2.8294-1.8-3.92943-3.5882-3.92943-.5855-.02932-1.1685.09538-1.6908.36168-.5222.26625-.9656.66485-1.2857 1.15595h-.0824v-1.28234h-2.76467v9.41174h2.94117v-5.0059c-.0425-.5126.119-1.0214.4494-1.4157s.8031-.6423 1.3153-.6901h.1118c.9353 0 1.6294.5882 1.6294 2.0705v5.0412h2.9412z" stroke="#000" stroke-linejoin="round"/></svg>